HIERARCHY
ROOT Hips
{
	OFFSET 0.00000 0.00000 0.00000
	CHANNELS 6 Xposition Yposition Zposition Zrotation Yrotation Xrotation 
	JOINT LHipJoint
	{
		OFFSET 0 0 0
		CHANNELS 3 Zrotation Yrotation Xrotation
		JOINT LeftUpLeg
		{
			OFFSET 1.29432 -1.88279 0.59910
			CHANNELS 3 Zrotation Yrotation Xrotation
			JOINT LeftLeg
			{
				OFFSET 2.63039 -7.22694 0.00000
				CHANNELS 3 Zrotation Yrotation Xrotation
				JOINT LeftFoot
				{
					OFFSET 2.70674 -7.43672 0.00000
					CHANNELS 3 Zrotation Yrotation Xrotation
					JOINT LeftToeBase
					{
						OFFSET 0.15066 -0.41394 2.09027
						CHANNELS 3 Zrotation Yrotation Xrotation
						End Site
						{
							OFFSET 0.00000 -0.00000 1.07518
						}
					}
				}
			}
		}
	}
	JOINT RHipJoint
	{
		OFFSET 0 0 0
		CHANNELS 3 Zrotation Yrotation Xrotation
		JOINT RightUpLeg
		{
			OFFSET -1.37068 -1.88279 0.59910
			CHANNELS 3 Zrotation Yrotation Xrotation
			JOINT RightLeg
			{
				OFFSET -2.57023 -7.06166 0.00000
				CHANNELS 3 Zrotation Yrotation Xrotation
				JOINT RightFoot
				{
					OFFSET -2.76461 -7.59570 0.00000
					CHANNELS 3 Zrotation Yrotation Xrotation
					JOINT RightToeBase
					{
						OFFSET -0.24175 -0.64785 2.19719
						CHANNELS 3 Zrotation Yrotation Xrotation
						End Site
						{
							OFFSET -0.00000 -0.00000 1.14803
						}
					}
				}
			}
		}
	}
	JOINT LowerBack
	{
		OFFSET 0 0 0
		CHANNELS 3 Zrotation Yrotation Xrotation
		JOINT Spine
		{
			OFFSET -0.03138 2.03983 -0.23106
			CHANNELS 3 Zrotation Yrotation Xrotation
			JOINT Spine1
			{
				OFFSET -0.00325 2.06238 -0.06878
				CHANNELS 3 Zrotation Yrotation Xrotation
				JOINT Neck
				{
					OFFSET 0 0 0
					CHANNELS 3 Zrotation Yrotation Xrotation
					JOINT Neck1
					{
						OFFSET -0.00002 1.75318 0.18090
						CHANNELS 3 Zrotation Yrotation Xrotation
						JOINT Head
						{
							OFFSET 0.08806 1.75856 -0.25387
							CHANNELS 3 Zrotation Yrotation Xrotation
							End Site
							{
								OFFSET 0.02554 1.78597 -0.10684
							}
						}
					}
				}
				JOINT LeftShoulder
				{
					OFFSET 0 0 0
					CHANNELS 3 Zrotation Yrotation Xrotation
					JOINT LeftArm
					{
						OFFSET 3.09657 1.33597 -0.04414
						CHANNELS 3 Zrotation Yrotation Xrotation
						JOINT LeftForeArm
						{
							OFFSET 5.34298 -0.00000 -0.00000
							CHANNELS 3 Zrotation Yrotation Xrotation
							JOINT LeftHand
							{
								OFFSET 3.67262 -0.00000 -0.00000
								CHANNELS 3 Zrotation Yrotation Xrotation
								JOINT LeftFingerBase
								{
									OFFSET 0 0 0
									CHANNELS 3 Zrotation Yrotation Xrotation
									JOINT LeftHandIndex1
									{
										OFFSET 0.59930 -0.00000 -0.00000
										CHANNELS 3 Zrotation Yrotation Xrotation
										End Site
										{
											OFFSET 0.48317 -0.00000 -0.00000
										}
									}
								}
								JOINT LThumb
								{
									OFFSET 0 0 0
									CHANNELS 3 Zrotation Yrotation Xrotation
									End Site
									{
										OFFSET 0.49055 -0.00000 0.49055
									}
								}
							}
						}
					}
				}
				JOINT RightShoulder
				{
					OFFSET 0 0 0
					CHANNELS 3 Zrotation Yrotation Xrotation
					JOINT RightArm
					{
						OFFSET -3.16460 1.32273 -0.23382
						CHANNELS 3 Zrotation Yrotation Xrotation
						JOINT RightForeArm
						{
							OFFSET -5.54967 -0.01834 0.03348
							CHANNELS 3 Zrotation Yrotation Xrotation
							JOINT RightHand
							{
								OFFSET -3.69401 -0.00000 0.00000
								CHANNELS 3 Zrotation Yrotation Xrotation
								JOINT RightFingerBase
								{
									OFFSET 0 0 0
									CHANNELS 3 Zrotation Yrotation Xrotation
									JOINT RightHandIndex1
									{
										OFFSET -0.63811 -0.00000 0.00000
										CHANNELS 3 Zrotation Yrotation Xrotation
										End Site
										{
											OFFSET -0.51446 -0.00000 0.00000
										}
									}
								}
								JOINT RThumb
								{
									OFFSET 0 0 0
									CHANNELS 3 Zrotation Yrotation Xrotation
									End Site
									{
										OFFSET -0.52232 -0.00000 0.52232
									}
								}
							}
						}
					}
				}
			}
		}
	}
}
MOTION
Frames: 14
Frame Time: .0083333
-2.4388 18.7317 23.3989 0 0 0 0 0 0 -21 0 0 0 0 0 0 0 0 0 0 0 0 0 0 21 0 0 0 0 0 0 0 0 0 0 0 0 0 0 0 0 0 0 0 0 0 0 -16 0 0 21 0 0 11 0 0 0 -8 0 0 0 0 0 0 0 0 0 0 0 0 0 0 0 0 0 0 0 0 8 0 0 0 0 0 0 0 0 0 0 0 0 0 0 0 0 0
-2.4388 18.7317 23.3989 -177.4590 8.8547 -173.4580 0.0000 0.0000 0.0000 -7.2737 -10.5799 -21.7124 1.0024 6.3711 17.8649 -0.5177 13.1848 -8.9518 0.0814 -1.8409 -5.0661 0.0000 0.0000 0.0000 24.2438 7.6289 0.8903 -1.6523 -8.1009 23.0209 -0.7719 -0.1622 -16.6649 -0.2504 3.2196 -8.8908 1.6103 0.6478 2.2194 0.3961 0.9363 1.7077 -0.5124 0.5008 0.5238 -7.8181 -11.4222 -10.9283 11.7242 -16.2889 22.9534 3.3177 -6.5322 10.8476 -0.0000 -0.0000 0.0000 -86.3511 5.4093 -21.9144 6.7003 -11.4250 -0.6710 -0.0000 -0.0000 54.4661 7.5805 27.9815 3.5729 -7.1250 0.0000 -0.0000 -24.8023 56.3935 -7.2404 -0.0000 -0.0000 0.0000 81.9341 4.2415 19.9850 -24.3563 35.5387 -7.9127 0.0000 0.0000 9.6898 -22.4686 23.4086 -9.3307 7.1250 -0.0000 -0.0000 4.1318 -4.9334 3.7712
-2.4463 18.7311 23.2304 -177.4110 9.3853 -173.3050 0.0000 0.0000 0.0000 -6.5522 -11.5747 -20.5417 0.6602 5.1969 14.4711 -0.5643 13.3848 -7.5330 0.1526 -2.5170 -6.9366 0.0000 0.0000 0.0000 24.1559 7.6355 1.5613 -1.5958 -7.9679 22.6166 -0.7684 -0.0727 -16.5953 -0.2779 3.3910 -9.3692 1.5447 0.6651 2.0522 0.2495 0.9497 1.6248 -0.6244 0.5045 0.5343 -7.6834 -11.4543 -10.4677 11.7086 -16.3519 22.9849 3.3072 -6.5605 10.7628 -0.0000 -0.0000 0.0000 -86.0999 5.9903 -24.2617 6.5202 -11.1270 -0.6358 -0.0000 -0.0000 56.0077 7.9482 27.3096 3.6652 -7.1250 0.0000 -0.0000 -23.9759 55.8589 -6.6614 -0.0000 -0.0000 0.0000 81.9838 4.3299 20.4650 -24.7166 35.9129 -8.1231 0.0000 0.0000 9.5722 -22.7692 23.1555 -9.3721 7.1250 -0.0000 -0.0000 3.9188 -5.1462 3.5600
-2.4567 18.7344 23.0534 -177.3880 10.1453 -173.0030 0.0000 0.0000 0.0000 -5.8190 -12.6897 -19.4086 0.4032 4.0768 11.2929 -0.6179 13.8123 -6.3598 0.2643 -3.3071 -9.1350 0.0000 0.0000 0.0000 23.8882 7.6167 1.8996 -1.5628 -7.8889 22.3771 -0.7715 0.3285 -16.4925 -0.3528 3.8164 -10.5607 1.3877 0.8188 1.7589 0.1202 1.1404 1.4839 -0.6680 0.5949 0.5580 -7.7659 -11.4871 -10.2371 11.8597 -16.4212 23.2834 3.3805 -6.5614 10.8605 0.0000 0.0000 0.0000 -85.9187 6.5124 -26.7781 6.3681 -10.8746 -0.6068 -0.0000 -0.0000 57.8100 8.0731 26.5566 3.6286 -7.1250 0.0000 -0.0000 -23.3559 55.1974 -6.0914 0.0000 0.0000 0.0000 81.9561 4.3048 20.8090 -25.1142 36.3205 -8.3575 0.0000 0.0000 9.3942 -22.7119 22.1164 -8.9551 7.1250 -0.0000 -0.0000 3.8487 -6.2489 3.4148
-2.4705 18.7199 22.8872 -177.4660 10.6212 -172.7140 0.0000 0.0000 0.0000 -5.8215 -12.0458 -18.4523 0.1746 2.6920 7.4223 -0.5061 12.5160 -3.7277 0.4013 -4.0672 -11.2657 0.0000 0.0000 0.0000 23.6229 7.7453 2.3444 -1.5185 -7.7816 22.0527 -0.7467 0.1745 -16.2741 -0.4914 4.4948 -12.4731 0.9424 0.8676 1.4888 0.1542 1.1960 1.5415 -0.3793 0.6196 0.7594 -7.9900 -11.5138 -10.4512 12.1177 -16.4906 23.4196 3.4863 -6.5673 11.0101 -0.0000 -0.0000 0.0000 -86.0655 6.6619 -29.1206 6.2651 -10.7035 -0.5875 -0.0000 -0.0000 60.0424 7.8332 26.8143 3.5512 -7.1250 0.0000 -0.0000 -23.7585 55.3860 -6.3169 -0.0000 -0.0000 0.0000 81.5905 4.8922 20.9232 -25.2353 36.4435 -8.4293 0.0000 0.0000 9.3218 -23.0359 22.4817 -9.2353 7.1250 -0.0000 -0.0000 3.6824 -5.8087 3.2978
-2.4843 18.7074 22.7187 -177.5400 11.0155 -172.6710 0.0000 0.0000 0.0000 -5.8482 -10.8566 -15.6594 0.0018 0.2746 0.7545 -0.4116 11.9619 -0.1588 0.4301 -4.2087 -11.6646 0.0000 0.0000 0.0000 23.4229 7.8070 2.9969 -1.4902 -7.7120 21.8426 -0.7260 -0.0390 -16.1190 -0.6632 5.2084 -14.5038 0.5550 0.8469 1.4659 0.1882 1.1728 1.8264 -0.1239 0.6092 1.0552 -7.9179 -11.5876 -11.2588 12.0713 -16.6306 23.4614 3.3898 -6.6108 11.1898 -0.0000 -0.0000 0.0000 -86.1715 6.4272 -31.1546 6.1401 -10.4957 -0.5645 -0.0000 -0.0000 61.7787 7.5660 28.2697 3.5997 -7.1250 0.0000 -0.0000 -25.0220 56.6501 -7.4692 -0.0000 -0.0000 0.0000 81.1939 5.9151 20.8732 -25.2364 36.4447 -8.4299 0.0000 0.0000 9.2957 -23.3460 23.6279 -9.8145 7.1250 -0.0000 -0.0000 3.6124 -4.5463 3.3214
-2.5012 18.6948 22.5421 -177.4870 11.3391 -172.7520 0.0000 0.0000 0.0000 -5.5862 -10.7316 -15.5954 0.0000 -0.0000 -0.0000 -0.3082 10.4824 0.1648 0.3923 -4.0218 -11.1381 0.0000 0.0000 0.0000 23.3131 7.6452 3.7409 -1.4641 -7.6469 21.6467 -0.7202 0.2155 -15.9674 -0.7039 5.3624 -14.9450 0.5685 0.8907 1.5939 0.0398 1.2358 1.8914 -0.2851 0.6433 1.0541 -7.5913 -11.6950 -11.3135 11.9168 -16.8196 23.5339 3.2503 -6.6780 11.2025 -0.0000 -0.0000 0.0000 -85.8260 6.6756 -32.7307 6.0062 -10.2726 -0.5404 -0.0000 -0.0000 63.1111 7.8804 26.2146 3.4988 -7.1250 0.0000 -0.0000 -23.3253 54.8481 -5.8799 -0.0000 -0.0000 0.0000 81.1821 6.2738 20.6883 -25.4563 36.6667 -8.5609 0.0000 0.0000 9.0668 -23.1702 23.6717 -9.7502 7.1250 -0.0000 -0.0000 3.7259 -4.5322 3.4272
-2.5187 18.6704 22.3708 -177.4890 11.4323 -172.8180 0.0000 0.0000 0.0000 -5.4230 -10.9827 -15.8271 0.0000 0.0000 0.0000 -0.2164 9.0284 0.6905 0.5877 -4.9085 -13.6477 0.0000 0.0000 0.0000 23.2788 7.7173 4.6272 -1.4351 -7.5742 21.4279 -0.7141 0.2156 -15.8985 -0.6898 5.3096 -14.7939 0.5469 0.8226 1.7171 -0.0955 1.1402 1.6934 -0.4151 0.5921 0.7837 -7.6748 -11.7074 -10.5209 12.0218 -16.8296 23.6354 3.3462 -6.6889 11.1054 0.0000 0.0000 0.0000 -85.5701 7.5805 -33.0284 6.0053 -10.2709 -0.5402 -0.0000 -0.0000 63.1087 7.4758 25.8410 3.2736 -7.1250 0.0000 -0.0000 -23.4836 54.4307 -5.6784 0.0000 0.0000 0.0000 81.2079 6.0788 20.7200 -25.8094 37.0199 -8.7726 0.0000 0.0000 8.6844 -22.7725 23.5950 -9.5384 7.1250 -0.0000 -0.0000 3.9634 -4.6842 3.6354
-2.5321 18.6593 22.1987 -177.5690 11.8166 -172.8910 0.0000 0.0000 0.0000 -5.4479 -10.9099 -15.8841 0.0000 0.0000 0.0000 -0.1494 8.0082 1.5227 0.9263 -6.1314 -17.1661 0.0000 0.0000 0.0000 23.1649 8.0662 5.4887 -1.4285 -7.5575 21.3778 -0.7019 -0.0309 -15.8465 -0.7982 5.7025 -15.9236 0.2247 0.7661 1.7538 -0.0804 1.0556 1.5195 -0.2208 0.5435 0.5779 -8.2279 -11.6380 -9.6690 12.2768 -16.6788 23.7409 3.5973 -6.6585 11.0398 -0.0000 -0.0000 0.0000 -85.6947 8.4589 -33.3021 6.0334 -10.3178 -0.5452 -0.0000 -0.0000 62.6653 6.5378 26.7697 2.9549 -7.1250 0.0000 -0.0000 -24.9913 55.0959 -6.4942 -0.0000 -0.0000 0.0000 80.9923 5.9095 20.8087 -26.0823 37.2898 -8.9374 0.0000 0.0000 8.6254 -22.3140 24.1272 -9.5234 7.1250 -0.0000 -0.0000 4.3034 -4.2086 3.9874
-2.5439 18.6418 22.0276 -177.5650 12.3264 -172.9650 0.0000 0.0000 0.0000 -5.4328 -10.6475 -15.7671 0.0000 0.0000 0.0000 -0.0999 7.7610 2.8987 1.1285 -6.7474 -18.9693 0.0000 0.0000 0.0000 23.0522 8.3327 6.1494 -1.4514 -7.6153 21.5515 -0.6975 -0.1676 -15.8447 -0.9113 6.0829 -17.0251 0.0260 0.9910 1.8617 -0.2537 1.3666 1.8226 -0.2889 0.7037 0.8294 -7.8029 -11.8838 -10.5332 12.2705 -17.1357 23.9772 3.4093 -6.7802 11.3148 0.0000 -0.0000 0.0000 -85.2236 8.0080 -34.1372 5.9105 -10.1128 -0.5234 -0.0000 -0.0000 63.7256 5.9560 27.3801 2.7469 -7.1250 0.0000 -0.0000 -25.9708 55.5312 -7.0573 0.0000 -0.0000 0.0000 81.1387 6.6646 19.8936 -26.2250 37.4300 -9.0240 0.0000 0.0000 8.8142 -22.0919 24.6956 -9.6247 7.1250 -0.0000 -0.0000 4.5010 -3.6552 4.2181
-2.5613 18.6010 21.8626 -177.7380 12.4588 -172.9720 0.0000 0.0000 0.0000 -5.6330 -10.7392 -15.4805 0.0000 0.0000 0.0000 -0.0170 8.0183 5.2570 0.9672 -6.2615 -17.5450 0.0000 0.0000 0.0000 22.7469 8.3424 6.5453 -1.4858 -7.7009 21.8093 -0.6993 -0.1190 -15.8475 -0.8455 5.8648 -16.3926 -0.2753 0.8990 1.9805 -0.3733 1.2417 1.8112 -0.2435 0.6395 0.7469 -7.9141 -11.8861 -10.4658 12.4449 -17.1644 23.9541 3.4878 -6.7878 11.3268 0.0000 0.0000 0.0000 -85.0796 8.1453 -35.5780 5.8256 -9.9709 -0.5086 -0.0000 -0.0000 65.2666 5.7026 27.7805 2.6648 -7.1250 0.0000 -0.0000 -26.4985 55.8383 -7.4189 0.0000 0.0000 0.0000 81.0320 6.8452 19.9529 -26.6277 37.8219 -9.2699 0.0000 0.0000 8.4396 -22.0062 24.6569 -9.5704 7.1250 -0.0000 -0.0000 4.5492 -3.7110 4.2589
-2.5859 18.5650 21.6876 -177.9940 12.5214 -173.1440 0.0000 0.0000 0.0000 -5.9646 -11.5615 -16.7704 0.0558 1.5237 4.1911 0.0451 6.4621 5.6106 0.6290 -5.0749 -14.1223 0.0000 0.0000 0.0000 22.3969 8.3818 7.0868 -1.5368 -7.8261 22.1871 -0.6886 -0.0248 -15.6927 -0.6802 5.2732 -14.6895 -0.6047 0.6920 2.1514 -0.4108 0.9592 1.7484 -0.0967 0.4953 0.5817 -8.5047 -11.7998 -9.9612 12.8279 -17.0191 23.8400 3.7680 -6.7596 11.2658 0.0000 -0.0000 0.0000 -85.2299 8.5292 -37.1211 5.7990 -9.9264 -0.5040 -0.0000 -0.0000 66.7139 7.1970 26.1709 3.1878 -7.1250 0.0000 -0.0000 -23.9617 54.6790 -5.9532 0.0000 -0.0000 0.0000 80.7309 6.8196 20.3635 -27.0937 38.2684 -9.5571 0.0000 0.0000 7.8680 -21.9734 23.9974 -9.3189 7.1250 -0.0000 -0.0000 4.4994 -4.4045 4.1537
-2.6131 18.5485 21.5003 -178.1950 12.8255 -173.4790 0.0000 0.0000 0.0000 -6.3633 -12.1217 -17.8334 0.2265 3.0637 8.4560 0.0375 4.2972 4.2929 0.5703 -4.8365 -13.4428 0.0000 0.0000 0.0000 22.0960 8.6151 7.7514 -1.6241 -8.0347 22.8195 -0.6602 -0.0755 -15.3834 -0.5976 4.9487 -13.7623 -0.8702 0.7389 2.2895 -0.5128 1.0288 1.9461 -0.0538 0.5319 0.7043 -8.6473 -11.9261 -10.1023 12.9712 -17.2243 24.0799 3.8043 -6.8251 11.4431 0.0000 0.0000 0.0000 -85.1552 8.5466 -36.5637 5.8380 -9.9917 -0.5108 -0.0000 -0.0000 66.2778 5.9813 26.8262 2.7071 -7.1250 0.0000 -0.0000 -25.5682 55.0404 -6.6235 0.0000 0.0000 0.0000 80.6225 7.2105 19.8690 -27.2093 38.3781 -9.6288 0.0000 0.0000 7.7883 -22.0182 23.5886 -9.1922 7.1250 -0.0000 -0.0000 4.4296 -4.8234 4.0538
-2.6361 18.5505 21.3221 -178.4760 13.0217 -173.5670 0.0000 0.0000 0.0000 -6.7882 -12.7036 -18.8133 0.4286 4.2015 11.6442 -0.0040 3.5397 2.2868 0.7210 -5.4260 -15.1277 0.0000 0.0000 0.0000 21.7490 9.0425 8.0674 -1.7401 -8.3024 23.6364 -0.6391 -0.1283 -15.1545 -0.5277 4.6552 -12.9276 -1.1598 0.7547 2.1776 -0.6983 1.0616 2.1440 -0.0784 0.5494 0.9683 -8.7125 -12.1082 -10.4375 13.0877 -17.5292 24.5038 3.7948 -6.9090 11.7353 -0.0000 0.0000 0.0000 -84.9352 8.1167 -37.0968 5.7890 -9.9097 -0.5023 -0.0000 -0.0000 66.9855 3.3978 29.4737 1.6733 -7.1250 0.0000 -0.0000 -30.0138 56.8544 -9.2926 -0.0000 0.0000 0.0000 80.6477 7.7287 19.2863 -27.2684 38.4339 -9.6655 0.0000 0.0000 7.7937 -22.6249 23.8193 -9.5542 7.1250 -0.0000 -0.0000 4.0787 -4.4753 3.7577
